{"glyphs":{"0":{"ha":669,"x_min":0,"x_max":0,"o":"m 335 1000 b 69 493 104 1000 69 868 l 69 492 b 335 -14 69 117 104 -14 b 600 492 565 -14 600 117 l 600 493 b 335 1000 600 868 565 1000 z m 335 93 b 174 492 194 93 174 165 l 174 493 b 335 893 174 819 194 893 b 496 493 475 893 496 819 l 496 492 b 335 93 496 165 475 93 z "},"1":{"ha":425,"x_min":0,"x_max":0,"o":"m 356 0 l 249 0 l 249 869 l 69 851 l 69 958 l 356 986 z "},"2":{"ha":635,"x_min":0,"x_max":0,"o":"m 565 107 l 189 107 l 189 199 b 558 771 189 518 558 444 b 278 1000 558 1014 356 1003 b 69 974 200 997 110 983 l 86 878 b 281 899 131 886 231 897 b 451 757 329 900 451 904 b 79 240 451 546 79 564 l 79 0 l 565 0 z "},"3":{"ha":656,"x_min":0,"x_max":0,"o":"m 478 544 b 558 742 524 581 558 640 l 558 753 b 278 1000 558 1014 356 1003 b 69 974 200 997 110 983 l 86 878 b 281 899 131 886 231 897 b 451 753 329 900 451 904 l 451 742 b 281 589 451 583 346 592 l 210 586 l 210 490 l 278 488 b 479 300 368 483 479 493 l 479 275 b 281 88 479 82 357 86 b 86 108 231 89 131 100 l 69 13 b 278 -14 110 3 200 -11 b 586 268 383 -17 586 -28 l 586 307 b 478 544 586 439 538 508 z "},"4":{"ha":661,"x_min":0,"x_max":0,"o":"m 590 333 l 590 440 l 453 440 l 453 625 l 346 625 l 346 440 l 178 440 b 197 578 178 518 175 535 l 394 986 l 286 986 l 89 592 b 69 440 67 549 69 532 l 69 333 l 346 333 l 346 0 l 453 0 l 453 333 z "},"5":{"ha":654,"x_min":0,"x_max":0,"o":"m 324 643 b 176 615 263 643 214 633 l 176 879 l 550 879 l 550 986 l 69 986 l 69 449 l 176 436 b 324 536 194 517 239 536 b 478 342 433 536 478 504 l 478 314 b 324 101 478 138 433 101 b 107 115 274 101 151 107 l 88 18 b 324 0 128 8 246 0 b 585 307 524 0 585 100 l 585 349 b 324 643 585 542 524 643 z "},"6":{"ha":661,"x_min":0,"x_max":0,"o":"m 331 629 b 178 583 265 629 215 613 b 353 899 183 835 222 899 b 542 885 403 899 497 890 l 561 982 b 353 1000 521 993 431 1000 b 69 535 114 1000 72 878 l 69 293 b 69 286 69 290 69 289 l 69 279 b 331 -14 72 82 135 -14 b 592 293 531 -14 592 86 l 592 335 b 331 629 592 528 531 629 z m 485 300 b 331 93 485 124 440 93 b 176 300 221 93 176 124 l 176 328 b 331 522 176 490 221 522 b 485 328 440 522 485 490 z "},"7":{"ha":632,"x_min":0,"x_max":0,"o":"m 260 0 l 143 0 l 446 882 l 69 882 l 69 989 l 563 989 l 563 882 z "},"8":{"ha":697,"x_min":0,"x_max":0,"o":"m 535 528 b 614 732 590 575 614 647 b 349 1000 614 888 568 1000 b 83 732 129 1000 83 888 b 163 528 83 647 107 575 b 69 289 96 478 69 396 b 349 -14 69 97 115 -14 b 628 289 582 -14 628 97 b 535 528 628 396 601 478 z m 190 732 b 349 893 190 846 233 893 b 507 732 464 893 507 846 b 349 578 507 622 464 578 b 190 732 233 578 190 622 z m 349 93 b 176 289 219 93 176 138 b 349 471 176 424 219 471 b 521 289 478 471 521 424 b 349 93 521 138 478 93 z "},"9":{"ha":661,"x_min":0,"x_max":0,"o":"m 592 707 b 331 1000 589 904 526 1000 b 69 693 131 1000 69 900 l 69 651 b 331 357 69 458 131 357 b 483 403 396 357 446 374 b 308 88 478 151 439 88 b 119 101 258 88 164 96 l 100 4 b 308 -14 140 -7 231 -14 b 592 451 547 -14 589 108 l 592 693 b 592 700 592 696 592 697 z m 331 464 b 176 658 221 464 176 496 l 176 686 b 331 893 176 863 221 893 b 485 686 440 893 485 863 l 485 658 b 331 464 485 496 440 464 z "},"A":{"ha":768,"x_min":0,"x_max":0,"o":"m 506 350 l 589 0 l 699 0 l 469 986 l 292 986 l 69 0 l 179 0 l 260 350 z m 481 457 l 283 457 l 381 879 z "},"Ä":{"ha":768,"x_min":0,"x_max":0,"o":"m 260 1078 b 321 1138 293 1078 321 1104 b 260 1197 321 1171 293 1197 b 200 1138 228 1197 200 1171 b 260 1078 200 1104 228 1078 z m 499 1078 b 560 1138 532 1078 560 1104 b 499 1197 560 1171 532 1197 b 439 1138 467 1197 439 1171 b 499 1078 439 1104 467 1078 z m 506 350 l 589 0 l 699 0 l 469 986 l 292 986 l 69 0 l 179 0 l 260 350 z m 481 457 l 283 457 l 381 879 z "},"B":{"ha":711,"x_min":0,"x_max":0,"o":"m 533 511 b 503 528 525 518 514 524 l 522 549 b 575 726 556 588 575 646 b 307 986 575 865 569 986 l 69 986 l 69 0 l 335 0 b 617 286 611 0 617 149 b 533 511 617 392 593 465 z m 176 879 l 307 879 b 471 726 479 879 471 813 b 279 572 471 639 465 572 l 176 572 z m 176 107 l 176 465 l 307 465 b 513 286 507 465 513 371 b 335 107 513 201 521 107 z "},"C":{"ha":631,"x_min":0,"x_max":0,"o":"m 353 899 b 542 885 403 899 497 890 l 561 982 b 353 1000 521 993 431 1000 b 69 493 104 1000 69 868 l 69 492 b 353 -14 69 117 104 -14 b 561 4 431 -14 521 -7 l 542 101 b 353 88 497 96 403 88 b 174 492 194 88 174 165 l 174 493 b 353 899 174 819 194 899 z "},"Ć":{"ha":629,"x_min":0,"x_max":0,"o":"m 269 1143 l 269 1050 l 461 1111 l 461 1204 z m 351 899 b 540 885 401 899 496 890 l 560 982 b 351 1000 519 996 429 1000 b 68 493 103 1000 68 868 l 68 492 b 351 -14 68 117 103 -14 b 560 4 429 -14 519 -7 l 540 101 b 351 88 496 96 401 88 b 172 492 193 88 172 165 l 172 493 b 351 899 172 819 193 899 z "},"Č":{"ha":631,"x_min":0,"x_max":0,"o":"m 492 1108 l 492 1201 l 363 1158 b 326 1158 344 1154 344 1154 l 197 1201 l 197 1108 l 326 1065 b 363 1065 344 1061 344 1061 z m 353 899 b 542 885 403 899 497 890 l 561 982 b 353 1000 521 993 431 1000 b 69 493 104 1000 69 868 l 69 492 b 353 -14 69 117 104 -14 b 561 4 431 -14 521 -7 l 542 101 b 353 88 497 96 403 88 b 174 492 194 88 174 165 l 174 493 b 353 899 174 819 194 899 z "},"D":{"ha":693,"x_min":0,"x_max":0,"o":"m 69 986 l 69 0 l 342 0 b 624 467 590 0 624 149 l 624 519 b 342 986 624 838 590 986 z m 519 475 b 342 107 519 201 500 107 l 176 107 l 176 879 l 342 879 b 519 511 500 879 519 785 z "},"Đ":{"ha":769,"x_min":0,"x_max":0,"o":"m 146 986 l 146 547 l 69 547 l 69 440 l 146 440 l 146 0 l 418 0 b 700 467 667 0 700 149 l 700 519 b 418 986 700 838 667 986 z m 596 475 b 418 107 596 201 576 107 l 253 107 l 253 440 l 404 440 l 404 547 l 253 547 l 253 879 l 418 879 b 596 511 576 879 596 785 z "},"E":{"ha":651,"x_min":0,"x_max":0,"o":"m 176 879 l 582 879 l 582 986 l 69 986 l 69 0 l 582 0 l 582 107 l 176 107 l 176 468 l 515 468 l 515 575 l 176 575 z "},"F":{"ha":665,"x_min":0,"x_max":0,"o":"m 176 879 l 596 879 l 596 986 l 69 986 l 69 0 l 176 0 l 176 468 l 529 468 l 529 575 l 176 575 z "},"G":{"ha":686,"x_min":0,"x_max":0,"o":"m 617 524 l 304 524 l 304 417 l 510 417 l 510 96 b 353 88 461 92 397 88 b 174 492 194 88 174 165 l 174 493 b 353 897 174 819 194 897 b 574 881 425 897 547 886 l 593 978 b 353 999 549 986 478 999 b 69 493 104 999 69 868 l 69 492 b 353 -14 69 117 104 -14 b 617 11 501 -14 576 3 z "},"H":{"ha":690,"x_min":0,"x_max":0,"o":"m 621 986 l 514 986 l 514 581 l 176 581 l 176 986 l 69 986 l 69 0 l 176 0 l 176 474 l 514 474 l 514 0 l 621 0 z "},"I":{"ha":249,"x_min":0,"x_max":0,"o":"m 179 0 l 69 0 l 69 986 l 179 986 z "},"J":{"ha":310,"x_min":0,"x_max":0,"o":"m -42 -181 b 132 111 144 -26 132 -49 l 132 986 l 240 986 l 240 83 b 21 -261 240 -97 254 -78 z "},"K":{"ha":679,"x_min":0,"x_max":0,"o":"m 69 986 l 69 0 l 176 0 l 176 986 z m 306 549 l 572 986 l 460 986 l 183 550 l 496 0 l 610 0 z "},"L":{"ha":603,"x_min":0,"x_max":0,"o":"m 561 107 l 176 107 l 176 986 l 69 986 l 69 0 l 561 0 z "},"M":{"ha":749,"x_min":0,"x_max":0,"o":"m 693 986 l 586 986 l 374 474 l 163 986 l 56 986 l 56 0 l 163 0 l 163 706 l 315 333 l 432 333 l 586 707 l 586 0 l 693 0 z "},"N":{"ha":690,"x_min":0,"x_max":0,"o":"m 621 986 l 514 986 l 514 264 l 176 986 l 69 986 l 69 0 l 176 0 l 176 722 l 514 0 l 621 0 z "},"O":{"ha":706,"x_min":0,"x_max":0,"o":"m 353 1000 b 69 493 104 1000 69 868 l 69 492 b 353 -14 69 117 104 -14 b 636 492 601 -14 636 117 l 636 493 b 353 1000 636 868 601 1000 z m 353 93 b 174 492 194 93 174 165 l 174 493 b 353 893 174 819 194 893 b 532 493 511 893 532 819 l 532 492 b 353 93 532 165 511 93 z "},"Ö":{"ha":703,"x_min":0,"x_max":0,"o":"m 228 1078 b 289 1138 261 1078 289 1104 b 228 1197 289 1171 261 1197 b 168 1138 196 1197 168 1171 b 228 1078 168 1104 196 1078 z m 475 1078 b 536 1138 508 1078 536 1104 b 475 1197 536 1171 508 1197 b 415 1138 443 1197 415 1171 b 475 1078 415 1104 443 1078 z m 351 1000 b 69 493 103 1000 69 868 l 69 492 b 351 -14 69 117 103 -14 b 633 492 600 -14 633 117 l 633 493 b 351 1000 633 868 600 1000 z m 351 93 b 171 492 193 93 171 161 l 171 493 b 351 893 171 824 193 893 b 532 493 510 893 532 824 l 532 492 b 351 93 532 161 510 93 z "},"P":{"ha":669,"x_min":0,"x_max":0,"o":"m 69 986 l 69 0 l 176 0 l 176 414 l 307 414 b 589 700 583 414 589 563 b 307 986 589 838 583 986 z m 176 521 l 176 879 l 307 879 b 485 700 493 879 485 785 b 307 521 485 615 493 521 z "},"Q":{"ha":722,"x_min":0,"x_max":0,"o":"m 653 -24 b 538 35 596 -3 563 17 b 636 488 621 101 636 242 l 636 489 b 353 1000 636 868 601 1000 b 69 489 104 1000 69 868 l 69 488 b 353 -14 69 117 104 -14 b 407 -11 372 -14 390 -12 b 615 -124 476 -46 469 -71 z m 174 489 b 353 893 174 819 194 893 b 532 489 511 893 532 819 l 532 488 b 353 93 532 165 511 93 b 174 488 194 93 174 165 z "},"R":{"ha":697,"x_min":0,"x_max":0,"o":"m 507 0 l 621 0 l 451 461 b 589 714 586 506 589 617 b 307 986 589 838 583 986 l 69 986 l 69 0 l 176 0 l 176 442 l 307 442 l 344 443 z m 176 549 l 176 879 l 307 879 b 485 714 493 879 485 785 b 307 549 485 629 493 549 z "},"S":{"ha":650,"x_min":0,"x_max":0,"o":"m 385 893 b 194 760 285 893 194 893 b 581 271 194 485 581 701 b 258 -14 581 -11 442 -14 b 69 7 215 -14 138 -6 l 89 108 b 265 93 156 97 222 93 b 469 281 378 93 469 86 b 83 768 469 592 83 371 b 392 1000 83 983 236 1000 b 533 982 435 1000 497 990 l 514 881 b 385 893 481 889 388 893 z "},"Š":{"ha":650,"x_min":0,"x_max":0,"o":"m 474 1108 l 474 1201 l 344 1158 b 308 1158 326 1154 326 1154 l 179 1201 l 179 1108 l 308 1065 b 344 1065 326 1061 326 1061 z m 385 893 b 194 760 285 893 194 893 b 581 271 194 485 581 701 b 258 -14 581 -11 442 -14 b 69 7 215 -14 138 -6 l 89 108 b 265 93 156 97 222 93 b 469 281 378 93 469 86 b 83 768 469 592 83 371 b 392 1000 83 983 236 1000 b 533 982 435 1000 497 990 l 514 881 b 385 893 481 889 388 893 z "},"T":{"ha":681,"x_min":0,"x_max":0,"o":"m 611 879 l 611 986 l 69 986 l 69 879 l 288 879 l 288 0 l 394 0 l 394 879 z "},"U":{"ha":706,"x_min":0,"x_max":0,"o":"m 636 986 l 532 986 l 532 492 b 353 93 532 172 511 93 b 174 492 194 93 174 172 l 174 986 l 69 986 l 69 492 b 353 -14 69 117 104 -14 b 636 492 601 -14 636 117 z "},"Ü":{"ha":706,"x_min":0,"x_max":0,"o":"m 474 1078 b 535 1138 507 1078 535 1104 b 474 1197 535 1171 507 1197 b 414 1138 442 1197 414 1171 b 474 1078 414 1104 442 1078 z m 228 1079 b 288 1138 261 1079 288 1104 b 228 1196 288 1171 261 1196 b 169 1138 196 1196 169 1171 b 228 1079 169 1104 196 1079 z m 636 986 l 532 986 l 532 492 b 353 93 532 168 511 93 b 174 492 194 93 174 168 l 174 986 l 69 986 l 69 492 b 353 -14 69 117 104 -14 b 636 492 601 -14 636 117 z "},"V":{"ha":768,"x_min":0,"x_max":0,"o":"m 179 986 l 381 107 l 589 986 l 699 986 l 469 0 l 292 0 l 69 986 z "},"W":{"ha":1074,"x_min":0,"x_max":0,"o":"m 1004 986 l 894 986 l 700 107 l 513 986 l 403 986 l 478 632 l 367 107 l 179 986 l 69 986 l 278 0 l 456 0 l 532 375 l 611 0 l 789 0 z "},"X":{"ha":764,"x_min":0,"x_max":0,"o":"m 583 0 l 694 0 l 450 511 l 681 986 l 569 986 l 392 631 l 222 986 l 110 986 l 328 533 l 69 0 l 181 0 l 385 414 z "},"Y":{"ha":728,"x_min":0,"x_max":0,"o":"m 658 986 l 547 986 l 364 524 l 181 986 l 69 986 l 310 386 l 310 0 l 418 0 l 418 386 z "},"Z":{"ha":635,"x_min":0,"x_max":0,"o":"m 563 107 l 193 107 l 565 879 l 565 986 l 72 986 l 72 879 l 442 879 l 69 107 l 69 0 l 563 0 z "},"Ž":{"ha":635,"x_min":0,"x_max":0,"o":"m 465 1101 l 465 1194 l 336 1151 b 300 1151 318 1147 318 1147 l 171 1194 l 171 1101 l 300 1058 b 336 1058 318 1054 318 1054 z m 563 107 l 193 107 l 565 879 l 565 986 l 72 986 l 72 879 l 442 879 l 69 107 l 69 0 l 563 0 z "},"a":{"ha":565,"x_min":0,"x_max":0,"o":"m 263 600 b 85 583 225 600 117 590 l 101 496 b 271 507 138 503 226 507 b 403 374 385 507 400 479 b 217 386 361 383 253 386 b 69 186 76 383 69 303 b 406 42 69 39 101 -58 l 419 0 l 496 0 l 496 310 b 263 600 496 503 497 600 z m 163 201 b 229 293 163 240 160 290 b 403 279 271 296 368 288 l 403 143 b 163 201 172 60 163 97 z "},"ä":{"ha":565,"x_min":0,"x_max":0,"o":"m 211 676 b 268 735 242 676 268 703 b 211 793 268 767 242 793 b 153 735 179 793 153 767 b 211 676 153 703 179 676 z m 383 676 b 442 735 415 676 442 703 b 383 793 442 767 415 793 b 326 735 353 793 326 767 b 383 676 326 703 353 676 z m 263 600 b 85 583 225 600 117 590 l 101 496 b 271 507 138 503 226 507 b 403 374 385 507 400 479 b 217 386 361 383 253 386 b 69 186 76 383 69 303 b 406 42 69 39 101 -58 l 419 0 l 496 0 l 496 310 b 263 600 496 503 497 600 z m 163 201 b 229 293 163 240 160 290 b 403 279 271 296 368 288 l 403 143 b 163 201 172 60 163 97 z "},"b":{"ha":565,"x_min":0,"x_max":0,"o":"m 163 1014 l 69 1014 l 69 0 l 299 -10 b 496 285 436 -12 496 53 b 163 542 496 500 464 661 z m 163 89 l 163 442 b 403 292 393 547 403 464 b 290 83 403 132 378 81 z "},"c":{"ha":510,"x_min":0,"x_max":0,"o":"m 163 293 b 294 79 163 119 186 79 l 311 79 b 424 88 340 79 394 82 l 440 0 b 303 -14 408 -7 340 -14 b 69 293 96 -14 69 83 b 303 597 69 500 96 597 b 440 583 340 597 408 590 l 424 496 b 311 504 394 501 340 504 l 294 504 b 163 293 186 504 163 464 z "},"ć":{"ha":510,"x_min":0,"x_max":0,"o":"m 218 751 l 218 658 l 375 696 l 375 789 z m 163 293 b 294 79 163 119 186 79 l 311 79 b 424 88 340 79 394 82 l 440 0 b 303 -14 408 -7 340 -14 b 69 293 96 -14 69 83 b 303 597 69 500 96 597 b 440 583 340 597 408 590 l 424 496 b 311 504 394 501 340 504 l 294 504 b 163 293 186 504 163 464 z "},"č":{"ha":510,"x_min":0,"x_max":0,"o":"m 389 703 l 389 796 l 288 753 b 251 753 269 749 269 749 l 150 796 l 150 703 l 251 660 b 288 660 269 656 269 656 z m 163 293 b 294 79 163 119 186 79 l 311 79 b 424 88 340 79 394 82 l 440 0 b 303 -14 408 -7 340 -14 b 69 293 96 -14 69 83 b 303 597 69 500 96 597 b 440 583 340 597 408 590 l 424 496 b 311 504 394 501 340 504 l 294 504 b 163 293 186 504 163 464 z "},"d":{"ha":565,"x_min":0,"x_max":0,"o":"m 496 1014 l 403 1014 l 403 588 l 267 593 b 69 299 129 596 69 531 b 406 43 69 82 101 -79 l 419 0 l 496 0 z m 403 494 l 403 142 b 163 292 172 36 163 119 b 275 500 163 451 188 503 z "},"đ":{"ha":631,"x_min":0,"x_max":0,"o":"m 561 788 l 561 881 l 496 881 l 496 1014 l 403 1014 l 403 881 l 242 881 l 242 788 l 403 788 l 403 588 l 267 593 b 69 299 129 596 69 531 b 406 43 69 82 101 -79 l 419 0 l 496 0 l 496 788 z m 403 494 l 403 142 b 163 292 172 36 163 119 b 275 500 163 451 188 503 z "},"e":{"ha":578,"x_min":0,"x_max":0,"o":"m 508 247 l 508 292 b 289 597 508 500 468 597 b 69 292 110 597 69 500 b 303 -14 69 82 110 -14 b 482 6 354 -14 450 -1 l 465 93 b 307 79 436 88 356 79 b 164 247 210 79 169 111 z m 289 504 b 414 340 369 504 407 472 l 164 340 b 289 504 171 472 210 504 z "},"f":{"ha":500,"x_min":0,"x_max":0,"o":"m 431 997 b 142 835 169 1053 142 967 l 142 583 l 69 583 l 69 490 l 142 490 l 142 0 l 235 0 l 235 490 l 389 490 l 389 583 l 235 583 l 235 808 b 414 908 235 908 249 940 z "},"g":{"ha":565,"x_min":0,"x_max":0,"o":"m 496 583 l 267 593 b 69 299 129 596 69 531 b 403 42 69 83 101 -78 l 403 -79 b 271 -282 403 -242 379 -282 l 254 -282 b 142 -274 225 -282 171 -279 l 125 -361 b 263 -375 157 -368 225 -375 b 496 -85 469 -375 496 -278 z m 403 494 l 403 142 b 163 292 172 36 163 119 b 275 500 163 451 188 503 z "},"h":{"ha":593,"x_min":0,"x_max":0,"o":"m 163 1014 l 69 1014 l 69 -1 l 163 -1 l 163 439 b 403 369 393 522 403 485 l 403 0 l 496 0 l 496 403 b 163 542 496 543 464 639 z "},"i":{"ha":275,"x_min":0,"x_max":0,"o":"m 138 688 b 206 756 175 688 206 718 b 138 824 206 793 175 824 b 69 756 100 824 69 793 b 138 688 69 718 100 688 z m 185 0 l 92 0 l 92 583 l 185 583 z "},"j":{"ha":271,"x_min":0,"x_max":0,"o":"m 140 688 b 208 756 178 688 208 718 b 140 824 208 793 178 824 b 72 756 103 824 72 793 b 140 688 72 718 103 688 z m 7 -292 b 94 -57 94 -206 94 -206 l 94 583 l 188 583 l 188 -57 b 72 -361 188 -251 194 -250 z "},"k":{"ha":588,"x_min":0,"x_max":0,"o":"m 69 1014 l 69 0 l 163 0 l 163 1014 z m 532 0 l 289 329 l 467 583 l 346 583 l 169 329 l 408 0 z "},"l":{"ha":235,"x_min":0,"x_max":0,"o":"m 69 0 l 164 0 l 164 1014 l 69 1014 z "},"m":{"ha":871,"x_min":0,"x_max":0,"o":"m 457 535 b 160 543 422 589 342 604 l 146 583 l 69 583 l 69 0 l 163 0 l 163 443 b 389 372 381 525 389 488 l 389 0 l 482 0 l 482 404 b 481 443 482 418 482 431 b 708 372 700 525 708 488 l 708 0 l 801 0 l 801 404 b 457 535 801 549 768 646 z "},"n":{"ha":551,"x_min":0,"x_max":0,"o":"m 146 583 l 69 583 l 69 0 l 163 0 l 163 442 b 403 372 393 525 403 488 l 403 0 l 496 0 l 496 404 b 160 542 496 546 464 642 z "},"o":{"ha":606,"x_min":0,"x_max":0,"o":"m 303 597 b 69 292 110 597 69 500 b 303 -14 69 82 110 -14 b 536 292 496 -14 536 82 b 303 597 536 500 496 597 z m 303 79 b 163 292 200 79 163 118 b 303 504 163 464 200 504 b 443 292 406 504 443 464 b 303 79 443 118 406 79 z "},"ö":{"ha":606,"x_min":0,"x_max":0,"o":"m 217 676 b 274 735 247 676 274 703 b 217 793 274 767 247 793 b 158 735 185 793 158 767 b 217 676 158 703 185 676 z m 389 676 b 447 735 421 676 447 703 b 389 793 447 767 421 793 b 332 735 358 793 332 767 b 389 676 332 703 358 676 z m 303 597 b 69 292 110 597 69 500 b 303 -14 69 82 110 -14 b 536 292 496 -14 536 82 b 303 597 536 500 496 597 z m 303 79 b 163 292 200 79 163 118 b 303 504 163 464 200 504 b 443 292 406 504 443 464 b 303 79 443 118 406 79 z "},"p":{"ha":565,"x_min":0,"x_max":0,"o":"m 146 583 l 69 583 l 69 -375 l 163 -375 l 163 -4 l 299 -10 b 496 285 436 -12 496 53 b 160 540 496 501 464 663 z m 163 89 l 163 442 b 403 292 393 547 403 464 b 290 83 403 132 378 81 z "},"q":{"ha":597,"x_min":0,"x_max":0,"o":"m 496 583 l 267 593 b 69 299 129 596 69 531 b 403 42 69 83 101 -78 l 403 -375 l 496 -375 z m 403 494 l 403 142 b 163 292 172 36 163 119 b 275 500 163 451 188 503 z "},"r":{"ha":428,"x_min":0,"x_max":0,"o":"m 358 583 b 160 543 288 583 236 571 l 146 583 l 69 583 l 69 0 l 163 0 l 163 443 b 358 492 257 479 301 489 z "},"s":{"ha":536,"x_min":0,"x_max":0,"o":"m 310 504 b 181 436 249 504 181 504 b 467 167 181 306 467 415 b 207 -14 467 0 357 -14 b 78 0 169 -14 110 -7 l 94 88 b 213 79 124 82 211 79 b 371 169 300 79 371 83 b 83 444 371 307 83 207 b 315 597 83 583 193 597 b 439 583 353 597 407 590 l 422 496 b 310 504 393 501 311 504 z "},"š":{"ha":536,"x_min":0,"x_max":0,"o":"m 381 703 l 381 796 l 279 753 b 243 753 261 749 261 749 l 142 796 l 142 703 l 243 660 b 279 660 261 656 261 656 z m 310 504 b 181 436 249 504 181 504 b 467 167 181 306 467 415 b 207 -14 467 0 357 -14 b 78 0 169 -14 110 -7 l 94 88 b 213 79 124 82 211 79 b 371 169 300 79 371 83 b 83 444 371 307 83 207 b 315 597 83 583 193 597 b 439 583 353 597 407 590 l 422 496 b 310 504 393 501 311 504 z "},"t":{"ha":515,"x_min":0,"x_max":0,"o":"m 386 106 b 207 206 221 74 207 106 l 207 490 l 361 490 l 361 583 l 207 583 l 207 792 l 114 792 l 114 583 l 42 583 l 42 490 l 114 490 l 114 179 b 403 17 114 47 142 -39 z "},"u":{"ha":565,"x_min":0,"x_max":0,"o":"m 496 583 l 403 583 l 403 143 b 163 213 172 60 163 97 l 163 583 l 69 583 l 69 179 b 406 42 69 38 101 -58 l 419 0 l 496 0 z "},"ü":{"ha":551,"x_min":0,"x_max":0,"o":"m 197 676 b 254 735 228 676 254 703 b 197 793 254 767 228 793 b 139 735 165 793 139 767 b 197 676 139 703 165 676 z m 369 676 b 428 735 401 676 428 703 b 369 793 428 767 401 793 b 313 735 339 793 313 767 b 369 676 313 703 339 676 z m 496 583 l 403 583 l 403 143 b 163 213 172 60 163 97 l 163 583 l 69 583 l 69 179 b 406 42 69 38 101 -58 l 419 0 l 496 0 z "},"v":{"ha":649,"x_min":0,"x_max":0,"o":"m 579 583 l 479 583 l 324 143 l 169 583 l 69 583 l 274 0 l 374 0 z "},"w":{"ha":871,"x_min":0,"x_max":0,"o":"m 801 583 l 701 583 l 553 147 l 406 583 l 306 583 l 385 349 l 317 147 l 169 583 l 69 583 l 267 0 l 367 0 l 435 200 l 503 0 l 603 0 z "},"x":{"ha":635,"x_min":0,"x_max":0,"o":"m 453 0 l 567 0 l 375 308 l 546 583 l 432 583 l 318 400 l 203 583 l 89 583 l 261 308 l 68 0 l 182 0 l 318 217 z "},"y":{"ha":683,"x_min":0,"x_max":0,"o":"m 614 583 l 507 583 l 343 101 l 333 101 l 172 583 l 65 583 l 261 0 l 308 0 b 142 -242 253 -160 253 -160 l 193 -322 b 406 -31 357 -201 339 -207 z "},"z":{"ha":560,"x_min":0,"x_max":0,"o":"m 493 93 l 193 93 l 483 490 l 483 583 l 83 583 l 83 490 l 360 490 l 69 93 l 69 0 l 493 0 z "},"ž":{"ha":563,"x_min":0,"x_max":0,"o":"m 401 703 l 401 796 l 300 753 b 264 753 282 749 282 749 l 163 796 l 163 703 l 264 660 b 300 660 282 656 282 656 z m 493 93 l 190 93 l 483 490 l 483 583 l 83 583 l 83 490 l 363 490 l 69 93 l 69 0 l 493 0 z "},"*":{"ha":583,"x_min":0,"x_max":0,"o":"m 119 638 l 233 760 l 69 796 l 100 893 l 254 831 l 240 997 l 342 997 l 329 831 l 483 893 l 514 796 l 350 760 l 464 638 l 383 575 l 292 715 l 200 575 z "},":":{"ha":275,"x_min":0,"x_max":0,"o":"m 138 453 b 206 521 175 453 206 483 b 138 589 206 558 175 589 b 69 521 100 589 69 558 b 138 453 69 483 100 453 z m 138 3 b 206 71 175 3 206 33 b 138 139 206 108 175 139 b 69 71 100 139 69 108 b 138 3 69 33 100 3 z "},",":{"ha":294,"x_min":0,"x_max":0,"o":"m 69 -93 b 114 151 115 0 113 76 l 225 151 b 146 -135 224 76 231 -15 z "},"…":{"ha":714,"x_min":0,"x_max":0,"o":"m 139 136 b 90 115 119 136 103 128 b 69 67 78 103 69 86 b 138 -1 69 29 100 -1 b 186 19 157 -1 174 7 b 207 68 199 32 207 49 b 139 136 207 106 176 136 z m 315 136 b 247 68 278 136 247 106 b 315 0 247 31 278 0 b 383 68 353 0 383 31 b 315 136 383 106 353 136 z m 492 136 b 424 68 454 136 424 106 b 492 0 424 31 454 0 b 560 68 529 0 560 31 b 492 136 560 106 529 136 z "},"!":{"ha":275,"x_min":0,"x_max":0,"o":"m 97 236 l 178 236 l 197 1014 l 78 1014 z m 138 3 b 206 71 175 3 206 33 b 138 139 206 108 175 139 b 69 71 100 139 69 108 b 138 3 69 33 100 3 z "},"#":{"ha":1053,"x_min":0,"x_max":0,"o":"m 738 583 l 953 583 l 983 689 l 761 689 l 826 986 l 717 986 l 651 689 l 488 689 l 553 986 l 443 986 l 378 689 l 182 689 l 153 583 l 354 583 l 314 401 l 99 401 l 69 296 l 290 296 l 225 0 l 335 0 l 400 296 l 564 296 l 499 0 l 608 0 l 674 296 l 869 296 l 900 401 l 697 401 z m 628 583 l 588 401 l 424 401 l 464 583 z "},".":{"ha":247,"x_min":0,"x_max":0,"o":"m 110 -1 b 178 67 147 -1 178 29 b 110 135 178 104 147 135 b 42 67 72 135 42 104 b 110 -1 42 29 72 -1 z "},"?":{"ha":600,"x_min":0,"x_max":0,"o":"m 429 761 b 253 903 429 908 301 904 b 86 882 231 901 131 890 l 69 978 b 250 1004 110 988 200 1001 b 531 775 328 1007 531 1018 b 356 504 531 658 474 601 b 290 236 285 446 290 394 l 210 236 b 292 569 210 406 203 496 b 429 761 383 658 429 664 z m 250 3 b 318 71 288 3 318 33 b 250 139 318 108 288 139 b 182 71 213 139 182 108 b 250 3 182 33 213 3 z "},";":{"ha":306,"x_min":0,"x_max":0,"o":"m 168 488 b 236 556 206 488 236 518 b 168 624 236 593 206 624 b 100 556 131 624 100 593 b 168 488 100 518 131 488 z m 69 -93 b 114 151 115 0 113 76 l 225 151 b 146 -135 224 76 231 -15 z "},"/":{"ha":633,"x_min":0,"x_max":0,"o":"m 171 -100 l 64 -100 l 454 1064 l 561 1064 z "},"_":{"ha":717,"x_min":0,"x_max":0,"o":"m 647 -44 l 69 -44 l 69 -151 l 647 -151 z "},"[":{"ha":453,"x_min":0,"x_max":0,"o":"m 383 -69 l 69 -69 l 69 1083 l 383 1083 l 383 976 l 176 976 l 176 38 l 383 38 z "},"]":{"ha":453,"x_min":0,"x_max":0,"o":"m 383 1083 l 383 -69 l 69 -69 l 69 38 l 276 38 l 276 976 l 69 976 l 69 1083 z "},"(":{"ha":457,"x_min":0,"x_max":0,"o":"m 69 479 b 310 -150 69 203 188 -11 l 388 -82 b 176 479 279 42 176 233 b 388 1040 176 725 279 917 l 310 1108 b 69 479 188 969 69 756 z "},")":{"ha":457,"x_min":0,"x_max":0,"o":"m 388 479 b 147 1108 388 756 269 969 l 69 1040 b 281 479 178 917 281 725 b 69 -82 281 233 178 42 l 147 -150 b 388 479 269 -11 388 203 z "},"—":{"ha":1111,"x_min":0,"x_max":0,"o":"m 1042 456 l 69 456 l 69 349 l 1042 349 z "},"–":{"ha":772,"x_min":0,"x_max":0,"o":"m 703 435 l 69 435 l 69 328 l 703 328 z "},"-":{"ha":661,"x_min":0,"x_max":0,"o":"m 592 435 l 69 435 l 69 328 l 592 328 z "},"„":{"ha":500,"x_min":0,"x_max":0,"o":"m 69 -93 b 118 151 115 0 118 61 l 222 151 b 146 -135 222 60 231 -15 z m 278 -93 b 326 151 324 0 326 61 l 431 151 b 354 -135 431 60 439 -15 z "},"“":{"ha":500,"x_min":0,"x_max":0,"o":"m 222 1110 b 174 865 176 1017 174 956 l 69 865 b 146 1151 69 957 61 1032 z m 431 1110 b 382 865 385 1017 382 956 l 278 865 b 354 1151 278 957 269 1032 z "}," ":{"ha":347,"x_min":0,"x_max":0,"o":""},"$":{"ha":650,"x_min":0,"x_max":0,"o":"m 581 271 b 194 760 581 701 194 485 b 385 907 194 907 285 907 b 514 894 388 907 481 903 l 533 996 b 392 1014 497 1004 435 1014 l 374 1014 l 374 1153 l 278 1153 l 278 1008 b 83 768 169 992 83 940 b 469 281 83 371 469 592 b 265 107 469 100 378 107 b 89 121 222 107 156 110 l 69 22 b 258 0 138 10 215 0 l 278 0 l 278 -139 l 374 -139 l 374 3 b 581 271 497 14 581 63 z "},"€":{"ha":736,"x_min":0,"x_max":0,"o":"m 458 88 b 283 315 333 88 294 136 l 508 315 l 529 422 l 279 422 l 279 492 l 279 493 l 279 551 l 525 551 l 544 658 l 282 658 b 458 899 293 847 331 899 b 647 885 508 899 603 890 l 667 982 b 458 1000 626 993 536 1000 b 179 658 250 1000 192 908 l 106 658 l 86 551 l 175 551 l 175 493 l 175 492 l 175 422 l 90 422 l 69 315 l 179 315 b 458 -14 194 75 254 -14 b 667 4 536 -14 626 -7 l 647 101 b 458 88 603 96 508 88 z "},"=":{"ha":833,"x_min":0,"x_max":0,"o":"m 744 540 l 69 540 l 69 433 l 744 433 z m 744 346 l 69 346 l 69 239 l 744 239 z "},"−":{"ha":814,"x_min":0,"x_max":0,"o":"m 744 456 l 69 456 l 69 349 l 744 349 z "},"%":{"ha":1133,"x_min":0,"x_max":0,"o":"m 281 986 b 69 714 110 986 69 885 b 281 443 69 542 110 443 b 490 714 450 443 490 542 b 281 986 490 885 450 986 z m 347 0 l 240 0 l 794 986 l 901 986 z m 281 539 b 167 714 203 539 167 581 b 281 889 167 846 203 889 b 393 714 357 889 393 846 b 281 539 393 581 357 539 z m 853 543 b 643 272 682 543 643 440 b 853 0 643 99 682 0 b 1064 272 1022 0 1064 99 b 853 543 1064 440 1022 543 z m 853 96 b 740 272 776 96 740 138 b 853 446 740 403 776 446 b 967 272 931 446 967 403 b 853 96 967 138 931 96 z "},"+":{"ha":689,"x_min":0,"x_max":0,"o":"m 619 339 l 619 446 l 399 446 l 399 668 l 292 668 l 292 446 l 69 446 l 69 339 l 292 339 l 292 118 l 399 117 l 399 339 z "},"@":{"ha":1017,"x_min":0,"x_max":0,"o":"m 696 313 l 713 628 l 636 632 l 621 594 b 493 642 590 619 550 639 b 286 378 301 653 292 485 b 604 104 272 114 299 7 b 769 51 626 58 686 51 b 949 388 883 51 949 115 b 518 982 949 893 918 982 b 64 326 90 982 64 840 b 615 -235 64 -121 90 -235 b 879 -207 735 -235 804 -221 l 858 -108 b 611 -132 783 -122 731 -132 b 167 326 192 -132 169 -78 b 514 879 169 803 192 879 b 846 389 822 879 846 857 b 768 149 846 217 844 149 b 689 197 711 149 688 160 z m 376 332 b 496 549 386 503 390 554 b 611 482 567 546 597 511 l 603 331 l 596 181 b 376 332 375 122 368 168 z "},"&":{"ha":819,"x_min":0,"x_max":0,"o":"m 631 0 l 750 0 l 654 125 b 710 288 688 175 704 232 l 622 303 b 593 206 615 269 608 236 l 368 501 l 371 503 b 583 763 569 621 583 639 b 351 989 583 978 460 990 b 121 763 243 990 121 978 b 213 535 121 650 122 654 l 215 531 b 69 267 103 460 69 411 b 390 0 69 97 122 1 b 588 56 475 0 540 21 z m 306 583 l 257 647 b 221 769 224 694 221 692 b 351 892 221 886 283 892 b 483 769 419 892 483 886 b 417 649 483 708 486 690 z m 394 99 b 171 260 168 99 171 171 b 282 444 171 364 171 372 l 529 131 b 394 99 497 111 454 99 z "}}}
